# Blender v2.80 (sub 75) OBJ File: 'Scene.blend'
# www.blender.org
mtllib PotardH_Cylinder.007.mtl
o PotardH_Cylinder.007
v 0.004541 -0.020000 0.024584
v -0.004540 -0.015000 -0.024584
v -0.001474 -0.014672 -0.025151
v 0.008630 -0.019563 0.023829
v 0.001459 -0.013703 -0.025692
v 0.012540 -0.018271 0.023107
v 0.004129 -0.012135 -0.026185
v 0.016101 -0.016181 0.022449
v 0.006421 -0.010037 -0.026609
v 0.019156 -0.013383 0.021885
v 0.008234 -0.007500 -0.026944
v 0.021573 -0.010000 0.021438
v 0.009488 -0.004635 -0.027175
v 0.023246 -0.006180 0.021130
v 0.010129 -0.001568 -0.027293
v 0.024100 -0.002091 0.020972
v 0.010129 0.001568 -0.027293
v 0.024100 0.002090 0.020972
v 0.009488 0.004635 -0.027175
v 0.023246 0.006180 0.021130
v 0.008234 0.007500 -0.026944
v 0.021573 0.010000 0.021438
v 0.006421 0.010037 -0.026609
v 0.019156 0.013383 0.021885
v 0.004129 0.012135 -0.026185
v 0.016101 0.016180 0.022449
v 0.001459 0.013703 -0.025692
v 0.012540 0.018271 0.023107
v -0.001474 0.014672 -0.025151
v 0.008630 0.019563 0.023829
v -0.004540 0.015000 -0.024584
v 0.004541 0.020000 0.024584
v -0.007607 0.014672 -0.024018
v 0.000451 0.019563 0.025340
v -0.010541 0.013703 -0.023476
v -0.003459 0.018271 0.026062
v -0.013210 0.012135 -0.022983
v -0.007019 0.016180 0.026719
v -0.015503 0.010037 -0.022559
v -0.010075 0.013382 0.027284
v -0.017315 0.007500 -0.022225
v -0.012492 0.010000 0.027730
v -0.018569 0.004635 -0.021993
v -0.014165 0.006180 0.028039
v -0.019210 0.001568 -0.021875
v -0.015019 0.002090 0.028197
v -0.019210 -0.001568 -0.021875
v -0.015019 -0.002091 0.028197
v -0.018569 -0.004635 -0.021993
v -0.014165 -0.006180 0.028039
v -0.017315 -0.007500 -0.022225
v -0.012492 -0.010000 0.027730
v -0.015503 -0.010037 -0.022559
v -0.010075 -0.013383 0.027284
v -0.013210 -0.012135 -0.022983
v -0.007019 -0.016180 0.026719
v -0.010541 -0.013703 -0.023476
v -0.003459 -0.018271 0.026062
v -0.007607 -0.014672 -0.024018
v 0.000451 -0.019563 0.025340
vt 1.000000 0.500000
vt 1.000000 1.000000
vt 0.966667 1.000000
vt 0.966667 0.500000
vt 0.933333 1.000000
vt 0.933333 0.500000
vt 0.900000 1.000000
vt 0.900000 0.500000
vt 0.866667 1.000000
vt 0.866667 0.500000
vt 0.833333 1.000000
vt 0.833333 0.500000
vt 0.800000 1.000000
vt 0.800000 0.500000
vt 0.766666 1.000000
vt 0.766666 0.500000
vt 0.733333 1.000000
vt 0.733333 0.500000
vt 0.700000 1.000000
vt 0.700000 0.500000
vt 0.666666 1.000000
vt 0.666666 0.500000
vt 0.633333 1.000000
vt 0.633333 0.500000
vt 0.600000 1.000000
vt 0.600000 0.500000
vt 0.566666 1.000000
vt 0.566666 0.500000
vt 0.533333 1.000000
vt 0.533333 0.500000
vt 0.500000 1.000000
vt 0.500000 0.500000
vt 0.466666 1.000000
vt 0.466666 0.500000
vt 0.433333 1.000000
vt 0.433333 0.500000
vt 0.400000 1.000000
vt 0.400000 0.500000
vt 0.366666 1.000000
vt 0.366666 0.500000
vt 0.333333 1.000000
vt 0.333333 0.500000
vt 0.300000 1.000000
vt 0.300000 0.500000
vt 0.266666 1.000000
vt 0.266666 0.500000
vt 0.233333 1.000000
vt 0.233333 0.500000
vt 0.200000 1.000000
vt 0.200000 0.500000
vt 0.166666 1.000000
vt 0.166666 0.500000
vt 0.133333 1.000000
vt 0.133333 0.500000
vt 0.100000 1.000000
vt 0.100000 0.500000
vt 0.066666 1.000000
vt 0.066666 0.500000
vt 0.299899 0.484755
vt 0.250000 0.490000
vt 0.200101 0.484755
vt 0.152383 0.469251
vt 0.108931 0.444164
vt 0.071645 0.410591
vt 0.042154 0.370000
vt 0.021746 0.324164
vt 0.011315 0.275087
vt 0.011315 0.224913
vt 0.021746 0.175836
vt 0.042154 0.130000
vt 0.071645 0.089409
vt 0.108932 0.055836
vt 0.152383 0.030749
vt 0.200101 0.015245
vt 0.250000 0.010000
vt 0.299899 0.015245
vt 0.347617 0.030749
vt 0.391068 0.055836
vt 0.428355 0.089409
vt 0.457846 0.130000
vt 0.478254 0.175836
vt 0.488685 0.224913
vt 0.488685 0.275087
vt 0.478254 0.324164
vt 0.457846 0.370000
vt 0.428355 0.410591
vt 0.391068 0.444164
vt 0.347617 0.469251
vt 0.033333 1.000000
vt 0.033333 0.500000
vt -0.000000 1.000000
vt -0.000000 0.500000
vt 0.750000 0.490000
vt 0.799899 0.484755
vt 0.847617 0.469251
vt 0.891068 0.444164
vt 0.928355 0.410591
vt 0.957846 0.370000
vt 0.978254 0.324164
vt 0.988685 0.275087
vt 0.988685 0.224913
vt 0.978254 0.175836
vt 0.957846 0.130000
vt 0.928355 0.089409
vt 0.891068 0.055836
vt 0.847617 0.030749
vt 0.799899 0.015245
vt 0.750000 0.010000
vt 0.700101 0.015245
vt 0.652383 0.030749
vt 0.608932 0.055836
vt 0.571645 0.089409
vt 0.542154 0.130000
vt 0.521746 0.175836
vt 0.511315 0.224913
vt 0.511315 0.275087
vt 0.521746 0.324164
vt 0.542154 0.370000
vt 0.571645 0.410591
vt 0.608931 0.444164
vt 0.652383 0.469251
vt 0.700101 0.484755
vn 0.0844 -0.9896 -0.1162
vn 0.2844 -0.9464 -0.1532
vn 0.4713 -0.8618 -0.1877
vn 0.6368 -0.7395 -0.2183
vn 0.7737 -0.5849 -0.2435
vn 0.8760 -0.4047 -0.2624
vn 0.9392 -0.2069 -0.2741
vn 0.9606 -0.0000 -0.2781
vn 0.9392 0.2069 -0.2741
vn 0.8760 0.4047 -0.2624
vn 0.7737 0.5849 -0.2435
vn 0.6367 0.7396 -0.2182
vn 0.4714 0.8617 -0.1877
vn 0.2844 0.9464 -0.1532
vn 0.0843 0.9896 -0.1162
vn -0.1202 0.9896 -0.0784
vn -0.3204 0.9464 -0.0415
vn -0.5071 0.8619 -0.0071
vn -0.6727 0.7395 0.0236
vn -0.8096 0.5849 0.0489
vn -0.9119 0.4047 0.0678
vn -0.9751 0.2069 0.0795
vn -0.9965 0.0000 0.0834
vn -0.9751 -0.2069 0.0795
vn -0.9119 -0.4047 0.0678
vn -0.8096 -0.5849 0.0489
vn -0.6726 -0.7396 0.0236
vn -0.5070 -0.8619 -0.0071
vn -0.1816 0.0000 -0.9834
vn -0.3203 -0.9464 -0.0415
vn -0.1203 -0.9896 -0.0784
vn 0.1816 -0.0000 0.9834
usemtl None.009
s off
f 1/1/1 2/2/1 3/3/1 4/4/1
f 4/4/2 3/3/2 5/5/2 6/6/2
f 6/6/3 5/5/3 7/7/3 8/8/3
f 8/8/4 7/7/4 9/9/4 10/10/4
f 10/10/5 9/9/5 11/11/5 12/12/5
f 12/12/6 11/11/6 13/13/6 14/14/6
f 14/14/7 13/13/7 15/15/7 16/16/7
f 16/16/8 15/15/8 17/17/8 18/18/8
f 18/18/9 17/17/9 19/19/9 20/20/9
f 20/20/10 19/19/10 21/21/10 22/22/10
f 22/22/11 21/21/11 23/23/11 24/24/11
f 24/24/12 23/23/12 25/25/12 26/26/12
f 26/26/13 25/25/13 27/27/13 28/28/13
f 28/28/14 27/27/14 29/29/14 30/30/14
f 30/30/15 29/29/15 31/31/15 32/32/15
f 32/32/16 31/31/16 33/33/16 34/34/16
f 34/34/17 33/33/17 35/35/17 36/36/17
f 36/36/18 35/35/18 37/37/18 38/38/18
f 38/38/19 37/37/19 39/39/19 40/40/19
f 40/40/20 39/39/20 41/41/20 42/42/20
f 42/42/21 41/41/21 43/43/21 44/44/21
f 44/44/22 43/43/22 45/45/22 46/46/22
f 46/46/23 45/45/23 47/47/23 48/48/23
f 48/48/24 47/47/24 49/49/24 50/50/24
f 50/50/25 49/49/25 51/51/25 52/52/25
f 52/52/26 51/51/26 53/53/26 54/54/26
f 54/54/27 53/53/27 55/55/27 56/56/27
f 56/56/28 55/55/28 57/57/28 58/58/28
f 3/59/29 2/60/29 59/61/29 57/62/29 55/63/29 53/64/29 51/65/29 49/66/29 47/67/29 45/68/29 43/69/29 41/70/29 39/71/29 37/72/29 35/73/29 33/74/29 31/75/29 29/76/29 27/77/29 25/78/29 23/79/29 21/80/29 19/81/29 17/82/29 15/83/29 13/84/29 11/85/29 9/86/29 7/87/29 5/88/29
f 58/58/30 57/57/30 59/89/30 60/90/30
f 60/90/31 59/89/31 2/91/31 1/92/31
f 1/93/32 4/94/32 6/95/32 8/96/32 10/97/32 12/98/32 14/99/32 16/100/32 18/101/32 20/102/32 22/103/32 24/104/32 26/105/32 28/106/32 30/107/32 32/108/32 34/109/32 36/110/32 38/111/32 40/112/32 42/113/32 44/114/32 46/115/32 48/116/32 50/117/32 52/118/32 54/119/32 56/120/32 58/121/32 60/122/32
