# Blender v2.80 (sub 75) OBJ File: 'Scene.blend'
# www.blender.org
mtllib Potard_Support.mtl
o Potard_Support_Support.001_Cube.001
v 0.248879 -0.500000 -0.039881
v 0.248880 0.300000 -0.039881
v 0.248880 0.300000 -0.039881
v 0.248879 -0.500000 -0.039881
v -0.246706 -0.500000 0.051652
v -0.246705 0.300000 0.051652
v -0.246705 0.300000 0.051652
v -0.246706 -0.500000 0.051652
v 0.109778 0.300000 -0.135610
v 0.109778 -0.500000 -0.135610
v -0.150977 -0.500000 -0.087449
v -0.150976 0.300000 -0.087449
v -0.246705 0.300000 0.051652
v -0.246705 0.300000 0.051652
v -0.246706 -0.500000 0.051652
v -0.246706 -0.500000 0.051652
v -0.278533 0.300000 0.097900
v -0.278533 -0.500000 0.097900
v 0.295127 -0.500000 -0.008053
v 0.295127 0.300000 -0.008053
v 0.248879 -0.500000 -0.039881
v 0.248879 -0.500000 -0.039881
v 0.248880 0.300000 -0.039881
v 0.248880 0.300000 -0.039881
v 0.248879 -0.500000 -0.039881
v 0.248880 0.300000 -0.039881
v 0.248879 -0.500000 -0.039881
v -0.246706 -0.500000 0.051652
v -0.246705 0.300000 0.051652
v -0.246706 -0.500000 0.051652
v 0.248880 0.300000 -0.039881
v -0.246705 0.300000 0.051652
v 0.248880 0.300000 -0.039881
v 0.248879 -0.500000 -0.039881
v -0.246706 -0.500000 0.051652
v -0.246705 0.300000 0.051652
v -0.246705 0.900000 0.051652
v 0.248880 0.900000 -0.039881
v -0.278533 0.900000 0.097900
v 0.295128 0.900000 -0.008053
vt 0.375000 0.648483
vt 0.500000 0.648483
vt 0.625000 0.648483
vt 0.375000 0.648483
vt 0.375000 0.351517
vt 0.500000 0.351517
vt 0.625000 0.351517
vt 0.375000 0.351517
vt 0.625000 0.578125
vt 0.375000 0.578125
vt 0.375000 0.421875
vt 0.625000 0.421875
vt 0.500000 0.351517
vt 0.625000 0.351517
vt 0.375000 0.351517
vt 0.375000 0.351517
vt 0.625000 0.328125
vt 0.375000 0.328125
vt 0.375000 0.671875
vt 0.625000 0.671875
vt 0.375000 0.648483
vt 0.375000 0.648483
vt 0.500000 0.648483
vt 0.625000 0.648483
vt 0.375000 0.648483
vt 0.625000 0.648483
vt 0.375000 0.648483
vt 0.375000 0.351517
vt 0.625000 0.351517
vt 0.375000 0.351517
vt 0.625000 0.648483
vt 0.625000 0.351517
vt 0.625000 0.648483
vt 0.375000 0.648483
vt 0.375000 0.351517
vt 0.625000 0.351517
vt 0.625000 0.351517
vt 0.625000 0.648483
vt 0.625000 0.328125
vt 0.625000 0.671875
vn 0.0000 0.0000 1.0000
vn -0.1816 0.0000 -0.9834
vn 0.0000 0.0000 -0.9479
vn -0.2943 0.1219 -0.9479
vn 0.0000 0.0000 -0.8955
vn 0.4111 -0.1703 -0.8955
vn 0.1816 0.0000 0.9834
vn 0.0000 1.0000 0.0000
vn 0.5669 -0.0000 -0.8238
vn -0.8238 0.0000 -0.5669
vn -0.0000 -1.0000 -0.0000
usemtl None.009
s off
f 1/1/1 2/2/1 3/3/1 4/4/1
f 5/5/1 6/6/1 7/7/1 8/8/1
f 9/9/2 10/10/2 11/11/2 12/12/2
f 13/13/3 14/14/4 3/3/5 2/2/6
f 1/1/5 4/4/6 15/15/3 16/16/4
f 17/17/7 18/18/7 19/19/7 20/20/7
f 21/21/5 22/22/6 5/5/3 8/8/4
f 7/7/3 6/6/4 23/23/5 24/24/6
f 15/15/1 14/14/1 13/13/1 16/16/1
f 21/21/1 24/24/1 23/23/1 22/22/1
f 25/25/1 26/26/1 24/24/1 21/21/1
f 4/4/5 27/27/6 28/28/3 15/15/4
f 28/28/1 29/29/1 14/14/1 15/15/1
f 25/25/5 21/21/6 8/8/3 30/30/4
f 14/14/3 29/29/4 31/31/5 3/3/6
f 8/8/1 7/7/1 32/32/1 30/30/1
f 32/32/3 7/7/4 24/24/5 26/26/6
f 4/4/1 3/3/1 31/31/1 27/27/1
f 22/22/1 23/23/1 33/33/1 34/34/1
f 12/12/8 32/32/8 26/26/8 9/9/8
f 10/10/9 9/9/9 26/26/9 25/25/9
f 22/22/5 34/34/6 35/35/3 5/5/4
f 18/18/10 17/17/10 29/29/10 28/28/10
f 34/34/5 1/1/6 16/16/3 35/35/4
f 34/34/1 33/33/1 2/2/1 1/1/1
f 27/27/11 19/19/11 18/18/11 28/28/11
f 16/16/1 13/13/1 36/36/1 35/35/1
f 31/31/2 29/29/2 37/37/2 38/38/2
f 35/35/1 36/36/1 6/6/1 5/5/1
f 10/10/11 25/25/11 30/30/11 11/11/11
f 27/27/9 31/31/9 20/20/9 19/19/9
f 36/36/3 13/13/4 2/2/5 33/33/6
f 30/30/10 32/32/10 12/12/10 11/11/10
f 6/6/3 36/36/4 33/33/5 23/23/6
f 37/37/8 39/39/8 40/40/8 38/38/8
f 20/20/9 31/31/9 38/38/9 40/40/9
f 29/29/10 17/17/10 39/39/10 37/37/10
f 17/17/7 20/20/7 40/40/7 39/39/7
