# Blender v2.80 (sub 75) OBJ File: 'Scene.blend'
# www.blender.org
mtllib RotorH_Support.mtl
o RotorH_Support_Support_Cube
v -0.300034 -0.400000 0.566220
v -0.300034 0.400000 0.566220
v -0.598362 0.400000 0.229322
v -0.598362 -0.400000 0.229321
v 0.566220 -0.400000 0.300034
v 0.566220 0.400000 0.300034
v 0.229321 0.400000 0.598362
v 0.229322 -0.400000 0.598362
v 0.598362 0.400000 -0.229321
v 0.300034 0.400000 -0.566220
v -0.229322 0.400000 -0.598362
v -0.566220 0.400000 -0.300034
v -0.566220 -0.400000 -0.300034
v -0.229321 -0.400000 -0.598362
v 0.300034 -0.400000 -0.566220
v 0.598362 -0.400000 -0.229322
vt 0.375000 0.828125
vt 0.625000 0.828125
vt 0.625000 0.921875
vt 0.375000 0.921875
vt 0.375000 0.578125
vt 0.625000 0.578125
vt 0.625000 0.671875
vt 0.375000 0.671875
vt 0.703125 0.500000
vt 0.796875 0.500000
vt 0.875000 0.578125
vt 0.875000 0.671875
vt 0.796875 0.750000
vt 0.703125 0.750000
vt 0.375000 0.078125
vt 0.625000 0.078125
vt 0.625000 0.171875
vt 0.375000 0.171875
vt 0.375000 0.328125
vt 0.625000 0.328125
vt 0.625000 0.421875
vt 0.375000 0.421875
vt 0.625000 1.000000
vt 0.375000 1.000000
vt 0.125000 0.578125
vt 0.203125 0.500000
vt 0.296875 0.500000
vt 0.296875 0.750000
vt 0.203125 0.750000
vt 0.125000 0.671875
vn -0.7487 -0.0000 0.6630
vn 0.6630 0.0000 0.7487
vn -0.0000 1.0000 0.0000
vn -0.6630 -0.0000 -0.7487
vn 0.7487 0.0000 -0.6630
vn -0.9982 -0.0000 -0.0606
vn 0.0606 0.0000 -0.9982
vn 0.9982 0.0000 0.0606
vn -0.0606 -0.0000 0.9982
vn 0.0000 -1.0000 -0.0000
usemtl None.009
s off
f 1/1/1 2/2/1 3/3/1 4/4/1
f 5/5/2 6/6/2 7/7/2 8/8/2
f 6/6/3 9/9/3 10/10/3 11/11/3 12/12/3 3/13/3 2/14/3 7/7/3
f 13/15/4 12/16/4 11/17/4 14/18/4
f 15/19/5 10/20/5 9/21/5 16/22/5
f 4/4/6 3/3/6 12/23/6 13/24/6
f 10/20/7 15/19/7 14/18/7 11/17/7
f 6/6/8 5/5/8 16/22/8 9/21/8
f 2/2/9 1/1/9 8/8/9 7/7/9
f 14/25/10 15/26/10 16/27/10 5/5/10 8/8/10 1/28/10 4/29/10 13/30/10
