# Blender v2.80 (sub 75) OBJ File: 'Scene.blend'
# www.blender.org
mtllib Events-PupitreMiddle.mtl
o Events-PupitreMiddle_Cube_Cube.000
v -0.497540 -0.500000 -0.200806
v -0.497540 0.776780 -0.200806
v 0.502382 0.776780 -0.188365
v 0.502382 -0.500000 -0.188365
v 0.497087 0.259322 0.237230
v 0.497087 -0.500000 0.237230
v -0.502836 0.259322 0.224789
v -0.502836 -0.500000 0.224789
vt 0.375000 0.000000
vt 0.625000 0.000000
vt 0.625000 0.250000
vt 0.375000 0.250000
vt 0.625000 0.500000
vt 0.375000 0.500000
vt 0.625000 0.750000
vt 0.375000 0.750000
vt 0.625000 1.000000
vt 0.375000 1.000000
vt 0.125000 0.500000
vt 0.125000 0.750000
vt 0.875000 0.500000
vt 0.875000 0.750000
vn 0.0124 0.0000 -0.9999
vn 0.9999 0.0000 0.0124
vn -0.0124 -0.0000 0.9999
vn -0.9999 -0.0000 -0.0124
vn 0.0000 -1.0000 0.0000
vn -0.0096 0.6353 0.7722
usemtl None.001
s off
f 1/1/1 2/2/1 3/3/1 4/4/1
f 4/4/2 3/3/2 5/5/2 6/6/2
f 6/6/3 5/5/3 7/7/3 8/8/3
f 8/8/4 7/7/4 2/9/4 1/10/4
f 4/11/5 6/6/5 8/8/5 1/12/5
f 5/5/6 3/13/6 2/14/6 7/7/6
