# Blender v2.80 (sub 75) OBJ File: 'Scene.blend'
# www.blender.org
mtllib Support.001_Cube.000.mtl
o Support.001_Cube.000
v -1.389670 0.996162 -0.497658
v -1.389670 -0.003838 -0.497658
v -0.689165 0.996162 -0.198839
v -0.689165 -0.003838 -0.198839
v -0.689671 -0.003838 -0.498838
v -0.689671 0.996162 -0.498838
v -1.389164 -0.003838 -0.197659
v -1.389164 0.996162 -0.197658
vt 0.375000 0.875000
vt 0.625000 0.875000
vt 0.625000 1.000000
vt 0.375000 1.000000
vt 0.750000 0.625000
vt 0.875000 0.625000
vt 0.875000 0.750000
vt 0.750000 0.750000
vt 0.125000 0.625000
vt 0.250000 0.625000
vt 0.250000 0.750000
vt 0.125000 0.750000
vt 0.375000 0.000000
vt 0.625000 0.000000
vt 0.625000 0.125000
vt 0.375000 0.125000
vn 1.0000 0.0000 -0.0017
vn 0.0000 -1.0000 0.0000
vn -1.0000 -0.0000 0.0017
vn -0.0000 1.0000 0.0000
vn 0.0017 -0.0000 1.0000
vn -0.0017 -0.0000 -1.0000
usemtl None.011
s off
f 3/1/1 4/2/1 5/3/1 6/4/1
f 7/5/2 2/6/2 5/7/2 4/8/2
f 1/9/3 2/6/3 7/5/3 8/10/3
f 1/9/4 8/10/4 3/11/4 6/12/4
f 4/2/5 3/1/5 8/10/5 7/5/5
f 6/13/6 5/14/6 2/15/6 1/16/6
