# Blender v2.80 (sub 75) OBJ File: 'Scene.blend'
# www.blender.org
mtllib Tr-Grue-Caisse.mtl
o Tr-Grue-Caisse_Caisse_Cube.001
v -2.000010 3.667746 -1.666653
v -2.000010 4.001081 -1.666653
v -2.000012 4.001081 -1.999987
v -2.000012 3.667746 -1.999987
v 1.666654 3.667746 -2.000010
v 1.666654 4.001081 -2.000010
v 1.999988 4.001081 -2.000012
v 1.999988 3.667746 -2.000012
v 2.000010 3.667746 1.666654
v 2.000010 4.001080 1.666654
v 2.000012 4.001080 1.999988
v 2.000012 3.667746 1.999988
v -1.666654 3.667746 2.000011
v -1.666654 4.001080 2.000011
v -1.999987 4.001080 2.000013
v -1.999987 3.667746 2.000013
v 1.666676 0.001080 1.666656
v 2.000010 0.001080 1.666654
v 2.000012 0.001080 1.999988
v 1.666678 0.001080 1.999990
v -1.666656 4.001080 1.666677
v -1.999990 4.001080 1.666679
v -1.666678 4.001081 -1.999989
v -1.666677 4.001081 -1.666655
v 1.666654 0.001080 -2.000010
v 1.999988 0.001080 -2.000012
v 1.999990 0.001080 -1.666678
v 1.666656 0.001080 -1.666676
v 1.999990 4.001081 -1.666678
v 1.999990 3.667746 -1.666678
v -1.999990 3.667746 1.666679
v -2.000010 0.001080 -1.666654
v -1.666676 0.001080 -1.666656
v -1.666656 0.001080 1.666676
v -1.999990 0.001080 1.666678
v -2.000012 0.001080 -1.999988
v -1.666678 0.001080 -1.999990
v 1.666656 4.001081 -1.666676
v 1.666677 4.001080 1.666656
v -1.666656 0.334414 1.666676
v -1.666654 0.334414 2.000010
v 1.666678 0.334414 1.999990
v 1.666676 0.334414 1.666656
v 1.666678 4.001080 1.999990
v -1.666654 0.001080 2.000010
v -1.999988 0.001080 2.000012
v 1.666678 3.667746 1.999990
v -1.666678 3.667746 -1.999989
v -1.666678 0.334414 -1.999990
v 1.666654 0.334414 -2.000010
v -2.000012 0.334414 -1.999988
v 2.000012 0.334414 1.999988
v -1.999990 0.334414 1.666678
v -2.000010 0.334414 -1.666654
v -1.999988 0.334414 2.000012
v 1.999990 0.334414 -1.666678
v 2.000010 0.334414 1.666654
v 1.999988 0.334414 -2.000012
v -1.666676 0.334414 -1.666656
v 1.666656 0.334414 -1.666676
v 1.666677 3.667746 1.666656
v 1.666656 3.667746 -1.666676
v -1.666677 3.667746 -1.666655
v -1.666656 3.667746 1.666677
vt 0.541667 0.166667
vt 0.625000 0.166667
vt 0.625000 0.250000
vt 0.541667 0.250000
vt 0.541667 0.416667
vt 0.625000 0.416667
vt 0.625000 0.500000
vt 0.541667 0.500000
vt 0.541667 0.666667
vt 0.625000 0.666667
vt 0.625000 0.750000
vt 0.541667 0.750000
vt 0.541667 0.916667
vt 0.625000 0.916667
vt 0.625000 1.000000
vt 0.541667 1.000000
vt 0.291667 0.666667
vt 0.375000 0.666667
vt 0.375000 0.750000
vt 0.291667 0.750000
vt 0.791667 0.666667
vt 0.875000 0.666667
vt 0.875000 0.750000
vt 0.791667 0.750000
vt 0.791667 0.500000
vt 0.875000 0.500000
vt 0.875000 0.583333
vt 0.791667 0.583333
vt 0.291667 0.500000
vt 0.375000 0.500000
vt 0.375000 0.583333
vt 0.291667 0.583333
vt 0.625000 0.583333
vt 0.541667 0.583333
vt 0.541667 0.000000
vt 0.625000 0.000000
vt 0.625000 0.083333
vt 0.541667 0.083333
vt 0.125000 0.583333
vt 0.208333 0.583333
vt 0.208333 0.666667
vt 0.125000 0.666667
vt 0.125000 0.500000
vt 0.208333 0.500000
vt 0.708333 0.583333
vt 0.708333 0.666667
vt 0.458333 0.722222
vt 0.458333 0.916667
vt 0.458333 0.833333
vt 0.458333 0.694444
vt 0.708333 0.500000
vt 0.708333 0.750000
vt 0.208333 0.750000
vt 0.125000 0.750000
vt 0.625000 0.833333
vt 0.541667 0.833333
vt 0.625000 0.333333
vt 0.541667 0.333333
vt 0.375000 0.333333
vt 0.458333 0.333333
vt 0.458333 0.416667
vt 0.375000 0.416667
vt 0.375000 0.250000
vt 0.458333 0.250000
vt 0.375000 0.833333
vt 0.375000 0.916667
vt 0.458333 0.750000
vt 0.375000 0.083333
vt 0.458333 0.083333
vt 0.458333 0.166667
vt 0.375000 0.166667
vt 0.375000 0.000000
vt 0.458333 0.000000
vt 0.458333 0.583333
vt 0.458333 0.666667
vt 0.458333 0.500000
vt 0.458333 1.000000
vt 0.375000 1.000000
vt 0.458333 0.527778
vt 0.458333 0.555556
vt 0.541667 0.472222
vt 0.541667 0.444444
vt 0.541667 0.305556
vt 0.541667 0.277778
vn -1.0000 0.0000 0.0000
vn -0.0000 0.0000 -1.0000
vn 1.0000 0.0000 -0.0000
vn 0.0000 0.0000 1.0000
vn -0.0000 -1.0000 -0.0000
vn 0.0000 1.0000 0.0000
usemtl None.010
s off
f 1/1/1 2/2/1 3/3/1 4/4/1
f 5/5/2 6/6/2 7/7/2 8/8/2
f 9/9/3 10/10/3 11/11/3 12/12/3
f 13/13/4 14/14/4 15/15/4 16/16/4
f 17/17/5 18/18/5 19/19/5 20/20/5
f 21/21/6 22/22/6 15/23/6 14/24/6
f 23/25/6 3/26/6 2/27/6 24/28/6
f 24/28/6 2/27/6 22/22/6 21/21/6
f 25/29/5 26/30/5 27/31/5 28/32/5
f 28/32/5 27/31/5 18/18/5 17/17/5
f 8/8/3 7/7/3 29/33/3 30/34/3
f 30/34/3 29/33/3 10/10/3 9/9/3
f 16/35/1 15/36/1 22/37/1 31/38/1
f 31/38/1 22/37/1 2/2/1 1/1/1
f 32/39/5 33/40/5 34/41/5 35/42/5
f 33/40/5 28/32/5 17/17/5 34/41/5
f 36/43/5 37/44/5 33/40/5 32/39/5
f 37/44/5 25/29/5 28/32/5 33/40/5
f 29/33/6 38/45/6 39/46/6 10/10/6
f 40/47/6 41/48/6 42/49/6 43/50/6
f 7/7/6 6/51/6 38/45/6 29/33/6
f 6/51/6 23/25/6 24/28/6 38/45/6
f 10/10/6 39/46/6 44/52/6 11/11/6
f 39/46/6 21/21/6 14/24/6 44/52/6
f 35/42/5 34/41/5 45/53/5 46/54/5
f 34/41/5 17/17/5 20/20/5 45/53/5
f 12/12/4 11/11/4 44/55/4 47/56/4
f 47/56/4 44/55/4 14/14/4 13/13/4
f 4/4/2 3/3/2 23/57/2 48/58/2
f 48/58/2 23/57/2 6/6/2 5/5/2
f 37/59/2 49/60/2 50/61/2 25/62/2
f 36/63/2 51/64/2 49/60/2 37/59/2
f 51/64/2 4/4/2 48/58/2 49/60/2
f 20/65/4 42/49/4 41/48/4 45/66/4
f 19/19/4 52/67/4 42/49/4 20/65/4
f 52/67/4 12/12/4 47/56/4 42/49/4
f 35/68/1 53/69/1 54/70/1 32/71/1
f 46/72/1 55/73/1 53/69/1 35/68/1
f 55/73/1 16/35/1 31/38/1 53/69/1
f 27/31/3 56/74/3 57/75/3 18/18/3
f 26/30/3 58/76/3 56/74/3 27/31/3
f 58/76/3 8/8/3 30/34/3 56/74/3
f 45/66/4 41/48/4 55/77/4 46/78/4
f 41/48/4 13/13/4 16/16/4 55/77/4
f 18/18/3 57/75/3 52/67/3 19/19/3
f 57/75/3 9/9/3 12/12/3 52/67/3
f 25/62/2 50/61/2 58/76/2 26/30/2
f 50/61/2 5/5/2 8/8/2 58/76/2
f 32/71/1 54/70/1 51/64/1 36/63/1
f 54/70/1 1/1/1 4/4/1 51/64/1
f 49/60/6 59/79/6 60/80/6 50/61/6
f 59/79/6 40/47/6 43/50/6 60/80/6
f 53/69/6 40/47/6 59/79/6 54/70/6
f 57/75/6 56/74/6 60/80/6 43/50/6
f 61/81/5 62/82/5 30/34/5 9/9/5
f 31/38/5 1/1/5 63/83/5 64/84/5
f 39/46/1 38/45/1 62/82/1 61/81/1
f 21/21/3 64/84/3 63/83/3 24/28/3
f 24/28/4 63/83/4 62/82/4 38/45/4
f 21/21/2 39/46/2 61/81/2 64/84/2
f 48/58/5 5/5/5 62/82/5 63/83/5
f 13/13/5 64/84/5 61/81/5 47/56/5
f 9/9/2 57/75/2 43/50/2 61/81/2
f 31/38/2 64/84/2 40/47/2 53/69/2
f 1/1/4 54/70/4 59/79/4 63/83/4
f 30/34/4 62/82/4 60/80/4 56/74/4
f 5/5/1 50/61/1 60/80/1 62/82/1
f 47/56/1 61/81/1 43/50/1 42/49/1
f 13/13/3 41/48/3 40/47/3 64/84/3
f 48/58/3 63/83/3 59/79/3 49/60/3
