# Blender v2.80 (sub 75) OBJ File: 'Tangram.blend'
# www.blender.org
mtllib Square.mtl
o Carre_Plane.005
v 0.000000 -0.025000 -0.500000
v 0.000000 -0.025000 0.500000
v -0.500000 -0.025000 0.000000
v 0.500000 -0.025000 0.000000
v 0.500000 0.025000 0.000000
v 0.000000 0.025000 -0.500000
v -0.500000 0.025000 0.000000
v 0.000000 0.025000 0.500000
vt 0.250000 0.250000
vt 0.500000 0.500000
vt 0.750000 0.250000
vt 0.500000 0.000000
vt 0.750000 0.250000
vt 0.500000 0.000000
vt 0.250000 0.250000
vt 0.500000 0.500000
vn 0.0000 -1.0000 0.0000
vn 0.7071 0.0000 0.7071
vn -0.7071 0.0000 -0.7071
vn -0.7071 0.0000 0.7071
vn 0.7071 0.0000 -0.7071
vn 0.0000 1.0000 0.0000
usemtl Carre
s off
f 3/1/1 1/2/1 4/3/1 2/4/1
f 2/4/2 4/3/2 5/5/2 8/6/2
f 1/2/3 3/1/3 7/7/3 6/8/3
f 3/1/4 2/4/4 8/6/4 7/7/4
f 4/3/5 1/2/5 6/8/5 5/5/5
f 5/5/6 6/8/6 7/7/6 8/6/6
