{
    "asset" : {
        "generator" : "Khronos glTF Blender I/O v0.9.36",
        "version" : "2.0"
    },
    "scene" : 0,
    "scenes" : [
        {
            "name" : "Scene",
            "nodes" : [
                0,
                1
            ]
        }
    ],
    "nodes" : [
        {
            "mesh" : 0,
            "name" : "Body"
        },
        {
            "mesh" : 1,
            "name" : "Hair"
        }
    ],
    "materials" : [
        {
            "doubleSided" : true,
            "name" : "Skin",
            "pbrMetallicRoughness" : {
                "baseColorFactor" : [
                    1,
                    0.5647115707397461,
                    0.34191441535949707,
                    1
                ],
                "metallicFactor" : 0,
                "roughnessFactor" : 1
            }
        },
        {
            "doubleSided" : true,
            "name" : "Trousers Woman",
            "pbrMetallicRoughness" : {
                "baseColorFactor" : [
                    0.01221692468971014,
                    0.01221692468971014,
                    0.01221692468971014,
                    1
                ],
                "metallicFactor" : 0,
                "roughnessFactor" : 0.7319391965866089
            }
        },
        {
            "doubleSided" : true,
            "name" : "Shirt Woman",
            "pbrMetallicRoughness" : {
                "baseColorFactor" : [
                    0.16264192759990692,
                    0.01665847934782505,
                    0.009587209671735764,
                    1
                ],
                "metallicFactor" : 0,
                "roughnessFactor" : 0.6387832760810852
            }
        },
        {
            "doubleSided" : true,
            "name" : "Shoes Woman",
            "pbrMetallicRoughness" : {
                "baseColorFactor" : [
                    0,
                    0,
                    0,
                    1
                ],
                "metallicFactor" : 0,
                "roughnessFactor" : 0.48859313130378723
            }
        },
        {
            "doubleSided" : true,
            "name" : "Hair woman",
            "pbrMetallicRoughness" : {
                "baseColorFactor" : [
                    0.2597986161708832,
                    0.10092994570732117,
                    0.009987481869757175,
                    1
                ],
                "metallicFactor" : 0,
                "roughnessFactor" : 0.5
            }
        }
    ],
    "meshes" : [
        {
            "name" : "Cube.009",
            "primitives" : [
                {
                    "attributes" : {
                        "POSITION" : 0,
                        "NORMAL" : 1,
                        "JOINTS_0" : 2,
                        "WEIGHTS_0" : 3
                    },
                    "indices" : 4,
                    "material" : 0
                },
                {
                    "attributes" : {
                        "POSITION" : 5,
                        "NORMAL" : 6,
                        "JOINTS_0" : 7,
                        "WEIGHTS_0" : 8
                    },
                    "indices" : 9,
                    "material" : 1
                },
                {
                    "attributes" : {
                        "POSITION" : 10,
                        "NORMAL" : 11,
                        "JOINTS_0" : 12,
                        "WEIGHTS_0" : 13
                    },
                    "indices" : 14,
                    "material" : 2
                },
                {
                    "attributes" : {
                        "POSITION" : 15,
                        "NORMAL" : 16,
                        "JOINTS_0" : 17,
                        "WEIGHTS_0" : 18
                    },
                    "indices" : 19,
                    "material" : 3
                }
            ]
        },
        {
            "name" : "Plane",
            "primitives" : [
                {
                    "attributes" : {
                        "POSITION" : 20,
                        "NORMAL" : 21,
                        "JOINTS_0" : 22,
                        "WEIGHTS_0" : 23
                    },
                    "indices" : 24,
                    "material" : 4
                }
            ]
        }
    ],
    "accessors" : [
        {
            "bufferView" : 0,
            "componentType" : 5126,
            "count" : 1878,
            "max" : [
                6.116274833679199,
                11.792511940002441,
                1.0150384902954102
            ],
            "min" : [
                -6.109920501708984,
                0.14942359924316406,
                -0.5404146909713745
            ],
            "type" : "VEC3"
        },
        {
            "bufferView" : 1,
            "componentType" : 5126,
            "count" : 1878,
            "type" : "VEC3"
        },
        {
            "bufferView" : 2,
            "componentType" : 5123,
            "count" : 1878,
            "type" : "VEC4"
        },
        {
            "bufferView" : 3,
            "componentType" : 5126,
            "count" : 1878,
            "type" : "VEC4"
        },
        {
            "bufferView" : 4,
            "componentType" : 5123,
            "count" : 2844,
            "type" : "SCALAR"
        },
        {
            "bufferView" : 5,
            "componentType" : 5126,
            "count" : 1024,
            "max" : [
                1.2317792177200317,
                6.90276575088501,
                0.7908285856246948
            ],
            "min" : [
                -1.2254244089126587,
                1.2110376358032227,
                -0.7311869859695435
            ],
            "type" : "VEC3"
        },
        {
            "bufferView" : 6,
            "componentType" : 5126,
            "count" : 1024,
            "type" : "VEC3"
        },
        {
            "bufferView" : 7,
            "componentType" : 5123,
            "count" : 1024,
            "type" : "VEC4"
        },
        {
            "bufferView" : 8,
            "componentType" : 5126,
            "count" : 1024,
            "type" : "VEC4"
        },
        {
            "bufferView" : 9,
            "componentType" : 5123,
            "count" : 1536,
            "type" : "SCALAR"
        },
        {
            "bufferView" : 10,
            "componentType" : 5126,
            "count" : 1116,
            "max" : [
                3.1685585975646973,
                9.880001068115234,
                0.9568861722946167
            ],
            "min" : [
                -3.162203788757324,
                6.804905891418457,
                -0.7168924808502197
            ],
            "type" : "VEC3"
        },
        {
            "bufferView" : 11,
            "componentType" : 5126,
            "count" : 1116,
            "type" : "VEC3"
        },
        {
            "bufferView" : 12,
            "componentType" : 5123,
            "count" : 1116,
            "type" : "VEC4"
        },
        {
            "bufferView" : 13,
            "componentType" : 5126,
            "count" : 1116,
            "type" : "VEC4"
        },
        {
            "bufferView" : 14,
            "componentType" : 5123,
            "count" : 1668,
            "type" : "SCALAR"
        },
        {
            "bufferView" : 15,
            "componentType" : 5126,
            "count" : 324,
            "max" : [
                1.3204609155654907,
                0.36339855194091797,
                1.1316556930541992
            ],
            "min" : [
                -1.3141061067581177,
                -0.0019140243530273438,
                -0.44614216685295105
            ],
            "type" : "VEC3"
        },
        {
            "bufferView" : 16,
            "componentType" : 5126,
            "count" : 324,
            "type" : "VEC3"
        },
        {
            "bufferView" : 17,
            "componentType" : 5123,
            "count" : 324,
            "type" : "VEC4"
        },
        {
            "bufferView" : 18,
            "componentType" : 5126,
            "count" : 324,
            "type" : "VEC4"
        },
        {
            "bufferView" : 19,
            "componentType" : 5123,
            "count" : 492,
            "type" : "SCALAR"
        },
        {
            "bufferView" : 20,
            "componentType" : 5126,
            "count" : 378,
            "max" : [
                0.7408407330513,
                11.85591983795166,
                1.0939496755599976
            ],
            "min" : [
                -0.7119961977005005,
                10.13955307006836,
                -0.6792936325073242
            ],
            "type" : "VEC3"
        },
        {
            "bufferView" : 21,
            "componentType" : 5126,
            "count" : 378,
            "type" : "VEC3"
        },
        {
            "bufferView" : 22,
            "componentType" : 5123,
            "count" : 378,
            "type" : "VEC4"
        },
        {
            "bufferView" : 23,
            "componentType" : 5126,
            "count" : 378,
            "type" : "VEC4"
        },
        {
            "bufferView" : 24,
            "componentType" : 5123,
            "count" : 504,
            "type" : "SCALAR"
        }
    ],
    "bufferViews" : [
        {
            "buffer" : 0,
            "byteLength" : 22536,
            "byteOffset" : 0
        },
        {
            "buffer" : 0,
            "byteLength" : 22536,
            "byteOffset" : 22536
        },
        {
            "buffer" : 0,
            "byteLength" : 15024,
            "byteOffset" : 45072
        },
        {
            "buffer" : 0,
            "byteLength" : 30048,
            "byteOffset" : 60096
        },
        {
            "buffer" : 0,
            "byteLength" : 5688,
            "byteOffset" : 90144
        },
        {
            "buffer" : 0,
            "byteLength" : 12288,
            "byteOffset" : 95832
        },
        {
            "buffer" : 0,
            "byteLength" : 12288,
            "byteOffset" : 108120
        },
        {
            "buffer" : 0,
            "byteLength" : 8192,
            "byteOffset" : 120408
        },
        {
            "buffer" : 0,
            "byteLength" : 16384,
            "byteOffset" : 128600
        },
        {
            "buffer" : 0,
            "byteLength" : 3072,
            "byteOffset" : 144984
        },
        {
            "buffer" : 0,
            "byteLength" : 13392,
            "byteOffset" : 148056
        },
        {
            "buffer" : 0,
            "byteLength" : 13392,
            "byteOffset" : 161448
        },
        {
            "buffer" : 0,
            "byteLength" : 8928,
            "byteOffset" : 174840
        },
        {
            "buffer" : 0,
            "byteLength" : 17856,
            "byteOffset" : 183768
        },
        {
            "buffer" : 0,
            "byteLength" : 3336,
            "byteOffset" : 201624
        },
        {
            "buffer" : 0,
            "byteLength" : 3888,
            "byteOffset" : 204960
        },
        {
            "buffer" : 0,
            "byteLength" : 3888,
            "byteOffset" : 208848
        },
        {
            "buffer" : 0,
            "byteLength" : 2592,
            "byteOffset" : 212736
        },
        {
            "buffer" : 0,
            "byteLength" : 5184,
            "byteOffset" : 215328
        },
        {
            "buffer" : 0,
            "byteLength" : 984,
            "byteOffset" : 220512
        },
        {
            "buffer" : 0,
            "byteLength" : 4536,
            "byteOffset" : 221496
        },
        {
            "buffer" : 0,
            "byteLength" : 4536,
            "byteOffset" : 226032
        },
        {
            "buffer" : 0,
            "byteLength" : 3024,
            "byteOffset" : 230568
        },
        {
            "buffer" : 0,
            "byteLength" : 6048,
            "byteOffset" : 233592
        },
        {
            "buffer" : 0,
            "byteLength" : 1008,
            "byteOffset" : 239640
        }
    ],
    "buffers" : [
        {
            "byteLength" : 240648,
            "uri" : "data:application/octet-stream;base64,"
        }
    ]
}
