{
    "asset" : {
        "generator" : "Khronos glTF Blender I/O v0.9.36",
        "version" : "2.0"
    },
    "scene" : 0,
    "scenes" : [
        {
            "name" : "Scene",
            "nodes" : [
                0,
                1,
                2,
                10
            ]
        }
    ],
    "nodes" : [
        {
            "name" : "Light",
            "rotation" : [
                0.16907575726509094,
                0.7558803558349609,
                -0.27217137813568115,
                0.570947527885437
            ],
            "translation" : [
                4.076245307922363,
                5.903861999511719,
                -1.0054539442062378
            ]
        },
        {
            "name" : "Camera",
            "rotation" : [
                0.483536034822464,
                0.33687159419059753,
                -0.20870360732078552,
                0.7804827094078064
            ],
            "translation" : [
                7.358891487121582,
                4.958309173583984,
                6.925790786743164
            ]
        },
        {
            "mesh" : 0,
            "name" : "Hair",
            "rotation" : [
                0.7071068286895752,
                0,
                0,
                0.7071067094802856
            ]
        },
        {
            "name" : "Head",
            "rotation" : [
                -0.0017332220450043678,
                -0.013196740299463272,
                0.08165182173252106,
                0.9965721368789673
            ],
            "scale" : [
                1.0000001192092896,
                1.0000001192092896,
                0.9999999403953552
            ],
            "translation" : [
                -2.603443860493826e-08,
                0.6981755495071411,
                3.311996010779694e-09
            ]
        },
        {
            "children" : [
                3
            ],
            "name" : "Neck",
            "rotation" : [
                0.0021691718138754368,
                0.01241679210215807,
                -0.09864041954278946,
                0.9950433969497681
            ],
            "scale" : [
                0.9999999403953552,
                1,
                0.9999998807907104
            ],
            "translation" : [
                6.937117547067828e-12,
                1.1289317607879639,
                2.0182383542177718e-10
            ]
        },
        {
            "children" : [
                4
            ],
            "name" : "Torso",
            "rotation" : [
                0.02165588177740574,
                -0.9996762275695801,
                -8.347269613295794e-05,
                0.013366779312491417
            ],
            "scale" : [
                1,
                0.9999998807907104,
                0.9999999403953552
            ],
            "translation" : [
                -3.708191753659662e-09,
                0.6477783918380737,
                2.937422527438116e-10
            ]
        },
        {
            "children" : [
                5
            ],
            "name" : "Bone.002",
            "rotation" : [
                0.02459254115819931,
                0.7005717158317566,
                0.024172406643629074,
                0.7127484083175659
            ],
            "scale" : [
                1,
                1.0000001192092896,
                0.9999999403953552
            ],
            "translation" : [
                -1.3322676295501878e-15,
                0.9001755118370056,
                1.30385160446167e-08
            ]
        },
        {
            "children" : [
                6
            ],
            "name" : "Bone.001",
            "rotation" : [
                -0.00850443821400404,
                1.1920495524009311e-07,
                -1.0138080375199365e-09,
                0.9999639391899109
            ],
            "scale" : [
                1,
                0.9999998807907104,
                0.9999999403953552
            ],
            "translation" : [
                0,
                1.0028380155563354,
                0
            ]
        },
        {
            "children" : [
                7
            ],
            "name" : "Pelvis",
            "rotation" : [
                -0.03761636093258858,
                0,
                0,
                0.999292254447937
            ]
        },
        {
            "mesh" : 1,
            "name" : "Body",
            "rotation" : [
                0.7071068286895752,
                0,
                0,
                0.7071067094802856
            ],
            "skin" : 0,
            "translation" : [
                0,
                -5.796858787536621,
                0
            ]
        },
        {
            "children" : [
                9,
                8
            ],
            "name" : "Armature",
            "translation" : [
                0,
                5.796858787536621,
                0
            ]
        }
    ],
    "materials" : [
        {
            "doubleSided" : true,
            "name" : "Hair woman",
            "pbrMetallicRoughness" : {
                "baseColorFactor" : [
                    0.2597986161708832,
                    0.10092994570732117,
                    0.009987481869757175,
                    1
                ],
                "metallicFactor" : 0,
                "roughnessFactor" : 0.5
            }
        },
        {
            "doubleSided" : true,
            "name" : "Skin",
            "pbrMetallicRoughness" : {
                "baseColorFactor" : [
                    1,
                    0.5647115707397461,
                    0.34191441535949707,
                    1
                ],
                "metallicFactor" : 0,
                "roughnessFactor" : 1
            }
        },
        {
            "doubleSided" : true,
            "name" : "Trousers Woman",
            "pbrMetallicRoughness" : {
                "baseColorFactor" : [
                    0.01221692468971014,
                    0.01221692468971014,
                    0.01221692468971014,
                    1
                ],
                "metallicFactor" : 0,
                "roughnessFactor" : 0.7319391965866089
            }
        },
        {
            "doubleSided" : true,
            "name" : "Shirt Woman",
            "pbrMetallicRoughness" : {
                "baseColorFactor" : [
                    0.16264192759990692,
                    0.01665847934782505,
                    0.009587209671735764,
                    1
                ],
                "metallicFactor" : 0,
                "roughnessFactor" : 0.6387832760810852
            }
        },
        {
            "doubleSided" : true,
            "name" : "Shoes Woman",
            "pbrMetallicRoughness" : {
                "baseColorFactor" : [
                    0,
                    0,
                    0,
                    1
                ],
                "metallicFactor" : 0,
                "roughnessFactor" : 0.48859313130378723
            }
        }
    ],
    "meshes" : [
        {
            "name" : "Plane",
            "primitives" : [
                {
                    "attributes" : {
                        "POSITION" : 0,
                        "NORMAL" : 1
                    },
                    "indices" : 2,
                    "material" : 0
                }
            ]
        },
        {
            "name" : "Cube.009",
            "primitives" : [
                {
                    "attributes" : {
                        "POSITION" : 3,
                        "NORMAL" : 4,
                        "JOINTS_0" : 5,
                        "WEIGHTS_0" : 6,
                        "JOINTS_1" : 7,
                        "WEIGHTS_1" : 8
                    },
                    "indices" : 9,
                    "material" : 1
                },
                {
                    "attributes" : {
                        "POSITION" : 10,
                        "NORMAL" : 11,
                        "JOINTS_0" : 12,
                        "WEIGHTS_0" : 13,
                        "JOINTS_1" : 14,
                        "WEIGHTS_1" : 15
                    },
                    "indices" : 16,
                    "material" : 2
                },
                {
                    "attributes" : {
                        "POSITION" : 17,
                        "NORMAL" : 18,
                        "JOINTS_0" : 19,
                        "WEIGHTS_0" : 20,
                        "JOINTS_1" : 21,
                        "WEIGHTS_1" : 22
                    },
                    "indices" : 23,
                    "material" : 3
                },
                {
                    "attributes" : {
                        "POSITION" : 24,
                        "NORMAL" : 25,
                        "JOINTS_0" : 26,
                        "WEIGHTS_0" : 27,
                        "JOINTS_1" : 28,
                        "WEIGHTS_1" : 29
                    },
                    "indices" : 30,
                    "material" : 4
                }
            ]
        }
    ],
    "skins" : [
        {
            "inverseBindMatrices" : 31,
            "joints" : [
                8,
                7,
                6,
                5,
                4,
                3
            ],
            "name" : "Armature"
        }
    ],
    "accessors" : [
        {
            "bufferView" : 0,
            "componentType" : 5126,
            "count" : 382,
            "max" : [
                0.7408407330513,
                1.0939496755599976,
                -10.13955307006836
            ],
            "min" : [
                -0.7119961977005005,
                -0.6792936325073242,
                -11.85591983795166
            ],
            "type" : "VEC3"
        },
        {
            "bufferView" : 1,
            "componentType" : 5126,
            "count" : 382,
            "type" : "VEC3"
        },
        {
            "bufferView" : 2,
            "componentType" : 5123,
            "count" : 504,
            "type" : "SCALAR"
        },
        {
            "bufferView" : 3,
            "componentType" : 5126,
            "count" : 624,
            "max" : [
                6.116274833679199,
                1.0150384902954102,
                -0.14942359924316406
            ],
            "min" : [
                -6.109920501708984,
                -0.5404146909713745,
                -11.792511940002441
            ],
            "type" : "VEC3"
        },
        {
            "bufferView" : 4,
            "componentType" : 5126,
            "count" : 624,
            "type" : "VEC3"
        },
        {
            "bufferView" : 5,
            "componentType" : 5123,
            "count" : 624,
            "type" : "VEC4"
        },
        {
            "bufferView" : 6,
            "componentType" : 5126,
            "count" : 624,
            "type" : "VEC4"
        },
        {
            "bufferView" : 7,
            "componentType" : 5123,
            "count" : 624,
            "type" : "VEC4"
        },
        {
            "bufferView" : 8,
            "componentType" : 5126,
            "count" : 624,
            "type" : "VEC4"
        },
        {
            "bufferView" : 9,
            "componentType" : 5123,
            "count" : 2844,
            "type" : "SCALAR"
        },
        {
            "bufferView" : 10,
            "componentType" : 5126,
            "count" : 327,
            "max" : [
                1.2317792177200317,
                0.7908285856246948,
                -1.2110376358032227
            ],
            "min" : [
                -1.2254244089126587,
                -0.7311869859695435,
                -6.90276575088501
            ],
            "type" : "VEC3"
        },
        {
            "bufferView" : 11,
            "componentType" : 5126,
            "count" : 327,
            "type" : "VEC3"
        },
        {
            "bufferView" : 12,
            "componentType" : 5123,
            "count" : 327,
            "type" : "VEC4"
        },
        {
            "bufferView" : 13,
            "componentType" : 5126,
            "count" : 327,
            "type" : "VEC4"
        },
        {
            "bufferView" : 14,
            "componentType" : 5123,
            "count" : 327,
            "type" : "VEC4"
        },
        {
            "bufferView" : 15,
            "componentType" : 5126,
            "count" : 327,
            "type" : "VEC4"
        },
        {
            "bufferView" : 16,
            "componentType" : 5123,
            "count" : 1536,
            "type" : "SCALAR"
        },
        {
            "bufferView" : 17,
            "componentType" : 5126,
            "count" : 458,
            "max" : [
                3.1685585975646973,
                0.9568861722946167,
                -6.804905891418457
            ],
            "min" : [
                -3.162203788757324,
                -0.7168924808502197,
                -9.880001068115234
            ],
            "type" : "VEC3"
        },
        {
            "bufferView" : 18,
            "componentType" : 5126,
            "count" : 458,
            "type" : "VEC3"
        },
        {
            "bufferView" : 19,
            "componentType" : 5123,
            "count" : 458,
            "type" : "VEC4"
        },
        {
            "bufferView" : 20,
            "componentType" : 5126,
            "count" : 458,
            "type" : "VEC4"
        },
        {
            "bufferView" : 21,
            "componentType" : 5123,
            "count" : 458,
            "type" : "VEC4"
        },
        {
            "bufferView" : 22,
            "componentType" : 5126,
            "count" : 458,
            "type" : "VEC4"
        },
        {
            "bufferView" : 23,
            "componentType" : 5123,
            "count" : 1668,
            "type" : "SCALAR"
        },
        {
            "bufferView" : 24,
            "componentType" : 5126,
            "count" : 212,
            "max" : [
                1.3204609155654907,
                1.1316556930541992,
                0.0019140243530273438
            ],
            "min" : [
                -1.3141061067581177,
                -0.44614216685295105,
                -0.36339855194091797
            ],
            "type" : "VEC3"
        },
        {
            "bufferView" : 25,
            "componentType" : 5126,
            "count" : 212,
            "type" : "VEC3"
        },
        {
            "bufferView" : 26,
            "componentType" : 5123,
            "count" : 212,
            "type" : "VEC4"
        },
        {
            "bufferView" : 27,
            "componentType" : 5126,
            "count" : 212,
            "type" : "VEC4"
        },
        {
            "bufferView" : 28,
            "componentType" : 5123,
            "count" : 212,
            "type" : "VEC4"
        },
        {
            "bufferView" : 29,
            "componentType" : 5126,
            "count" : 212,
            "type" : "VEC4"
        },
        {
            "bufferView" : 30,
            "componentType" : 5123,
            "count" : 492,
            "type" : "SCALAR"
        },
        {
            "bufferView" : 31,
            "componentType" : 5126,
            "count" : 6,
            "type" : "MAT4"
        }
    ],
    "bufferViews" : [
        {
            "buffer" : 0,
            "byteLength" : 4584,
            "byteOffset" : 0
        },
        {
            "buffer" : 0,
            "byteLength" : 4584,
            "byteOffset" : 4584
        },
        {
            "buffer" : 0,
            "byteLength" : 1008,
            "byteOffset" : 9168
        },
        {
            "buffer" : 0,
            "byteLength" : 7488,
            "byteOffset" : 10176
        },
        {
            "buffer" : 0,
            "byteLength" : 7488,
            "byteOffset" : 17664
        },
        {
            "buffer" : 0,
            "byteLength" : 4992,
            "byteOffset" : 25152
        },
        {
            "buffer" : 0,
            "byteLength" : 9984,
            "byteOffset" : 30144
        },
        {
            "buffer" : 0,
            "byteLength" : 4992,
            "byteOffset" : 40128
        },
        {
            "buffer" : 0,
            "byteLength" : 9984,
            "byteOffset" : 45120
        },
        {
            "buffer" : 0,
            "byteLength" : 5688,
            "byteOffset" : 55104
        },
        {
            "buffer" : 0,
            "byteLength" : 3924,
            "byteOffset" : 60792
        },
        {
            "buffer" : 0,
            "byteLength" : 3924,
            "byteOffset" : 64716
        },
        {
            "buffer" : 0,
            "byteLength" : 2616,
            "byteOffset" : 68640
        },
        {
            "buffer" : 0,
            "byteLength" : 5232,
            "byteOffset" : 71256
        },
        {
            "buffer" : 0,
            "byteLength" : 2616,
            "byteOffset" : 76488
        },
        {
            "buffer" : 0,
            "byteLength" : 5232,
            "byteOffset" : 79104
        },
        {
            "buffer" : 0,
            "byteLength" : 3072,
            "byteOffset" : 84336
        },
        {
            "buffer" : 0,
            "byteLength" : 5496,
            "byteOffset" : 87408
        },
        {
            "buffer" : 0,
            "byteLength" : 5496,
            "byteOffset" : 92904
        },
        {
            "buffer" : 0,
            "byteLength" : 3664,
            "byteOffset" : 98400
        },
        {
            "buffer" : 0,
            "byteLength" : 7328,
            "byteOffset" : 102064
        },
        {
            "buffer" : 0,
            "byteLength" : 3664,
            "byteOffset" : 109392
        },
        {
            "buffer" : 0,
            "byteLength" : 7328,
            "byteOffset" : 113056
        },
        {
            "buffer" : 0,
            "byteLength" : 3336,
            "byteOffset" : 120384
        },
        {
            "buffer" : 0,
            "byteLength" : 2544,
            "byteOffset" : 123720
        },
        {
            "buffer" : 0,
            "byteLength" : 2544,
            "byteOffset" : 126264
        },
        {
            "buffer" : 0,
            "byteLength" : 1696,
            "byteOffset" : 128808
        },
        {
            "buffer" : 0,
            "byteLength" : 3392,
            "byteOffset" : 130504
        },
        {
            "buffer" : 0,
            "byteLength" : 1696,
            "byteOffset" : 133896
        },
        {
            "buffer" : 0,
            "byteLength" : 3392,
            "byteOffset" : 135592
        },
        {
            "buffer" : 0,
            "byteLength" : 984,
            "byteOffset" : 138984
        },
        {
            "buffer" : 0,
            "byteLength" : 384,
            "byteOffset" : 139968
        }
    ],
    "buffers" : [
        {
            "byteLength" : 140352,
            "uri" : "data:application/octet-stream;base64,"
        }
    ]
}
