{
    "asset" : {
        "generator" : "Khronos glTF Blender I/O v0.9.36",
        "version" : "2.0"
    },
    "scene" : 0,
    "scenes" : [
        {
            "name" : "Scene",
            "nodes" : [
                0,
                1,
                8
            ]
        }
    ],
    "nodes" : [
        {
            "name" : "Light",
            "rotation" : [
                0.16907575726509094,
                0.7558803558349609,
                -0.27217137813568115,
                0.570947527885437
            ],
            "translation" : [
                4.076245307922363,
                5.903861999511719,
                -1.0054539442062378
            ]
        },
        {
            "name" : "Camera",
            "rotation" : [
                0.483536034822464,
                0.33687159419059753,
                -0.20870360732078552,
                0.7804827094078064
            ],
            "translation" : [
                7.358891487121582,
                4.958309173583984,
                6.925790786743164
            ]
        },
        {
            "name" : "Bone.007",
            "rotation" : [
                -3.552713678800501e-15,
                8.881784197001252e-16,
                1.0587911840678754e-22,
                1
            ],
            "translation" : [
                0,
                0.7178268432617188,
                0
            ]
        },
        {
            "children" : [
                2
            ],
            "name" : "Bone.006",
            "rotation" : [
                -3.552713678800501e-15,
                1.4901161193847656e-08,
                9.529120656610879e-22,
                1
            ],
            "translation" : [
                0,
                0.9874544143676758,
                0
            ]
        },
        {
            "children" : [
                3
            ],
            "name" : "Bone.005",
            "rotation" : [
                -2.6337675061242402e-22,
                -0.5946122407913208,
                1.104682264479811e-15,
                0.804012656211853
            ],
            "scale" : [
                0.9999999403953552,
                1,
                1
            ],
            "translation" : [
                0,
                0.8875256776809692,
                0
            ]
        },
        {
            "children" : [
                4
            ],
            "name" : "Bone.001",
            "rotation" : [
                -1.4921918969147728e-15,
                0.5946120619773865,
                -2.5882491425300485e-15,
                0.8040127158164978
            ],
            "translation" : [
                0,
                1.794053077697754,
                0
            ]
        },
        {
            "children" : [
                5
            ],
            "name" : "Bone",
            "rotation" : [
                -2.980232594040899e-08,
                1.1920927533992653e-07,
                0,
                1
            ],
            "scale" : [
                1,
                0.9999999403953552,
                0.9999999403953552
            ]
        },
        {
            "mesh" : 0,
            "name" : "Cube.001",
            "scale" : [
                0.5,
                0.5,
                0.5
            ],
            "skin" : 0,
            "translation" : [
                0,
                3.202969551086426,
                0
            ]
        },
        {
            "children" : [
                7,
                6
            ],
            "name" : "Armature",
            "translation" : [
                0,
                -1.8643615245819092,
                0
            ]
        }
    ],
    "materials" : [
        {
            "doubleSided" : true,
            "name" : "Material",
            "pbrMetallicRoughness" : {
                "baseColorFactor" : [
                    0.800000011920929,
                    0.800000011920929,
                    0.800000011920929,
                    1
                ],
                "metallicFactor" : 0,
                "roughnessFactor" : 0.4000000059604645
            }
        }
    ],
    "meshes" : [
        {
            "name" : "Cube.001",
            "primitives" : [
                {
                    "attributes" : {
                        "POSITION" : 0,
                        "NORMAL" : 1,
                        "TEXCOORD_0" : 2,
                        "JOINTS_0" : 3,
                        "WEIGHTS_0" : 4
                    },
                    "indices" : 5,
                    "material" : 0
                }
            ]
        }
    ],
    "skins" : [
        {
            "inverseBindMatrices" : 6,
            "joints" : [
                6,
                5,
                4,
                3,
                2
            ],
            "name" : "Armature"
        }
    ],
    "accessors" : [
        {
            "bufferView" : 0,
            "componentType" : 5126,
            "count" : 176,
            "max" : [
                2,
                6.519843578338623,
                2
            ],
            "min" : [
                -2,
                -6.523621559143066,
                -2
            ],
            "type" : "VEC3"
        },
        {
            "bufferView" : 1,
            "componentType" : 5126,
            "count" : 176,
            "type" : "VEC3"
        },
        {
            "bufferView" : 2,
            "componentType" : 5126,
            "count" : 176,
            "type" : "VEC2"
        },
        {
            "bufferView" : 3,
            "componentType" : 5123,
            "count" : 176,
            "type" : "VEC4"
        },
        {
            "bufferView" : 4,
            "componentType" : 5126,
            "count" : 176,
            "type" : "VEC4"
        },
        {
            "bufferView" : 5,
            "componentType" : 5123,
            "count" : 258,
            "type" : "SCALAR"
        },
        {
            "bufferView" : 6,
            "componentType" : 5126,
            "count" : 5,
            "type" : "MAT4"
        }
    ],
    "bufferViews" : [
        {
            "buffer" : 0,
            "byteLength" : 2112,
            "byteOffset" : 0
        },
        {
            "buffer" : 0,
            "byteLength" : 2112,
            "byteOffset" : 2112
        },
        {
            "buffer" : 0,
            "byteLength" : 1408,
            "byteOffset" : 4224
        },
        {
            "buffer" : 0,
            "byteLength" : 1408,
            "byteOffset" : 5632
        },
        {
            "buffer" : 0,
            "byteLength" : 2816,
            "byteOffset" : 7040
        },
        {
            "buffer" : 0,
            "byteLength" : 516,
            "byteOffset" : 9856
        },
        {
            "buffer" : 0,
            "byteLength" : 320,
            "byteOffset" : 10372
        }
    ],
    "buffers" : [
        {
            "byteLength" : 10692,
            "uri" : "TestBlenderArmature.bin"
        }
    ]
}
