# Blender v2.80 (sub 75) OBJ File: 'Tangram.blend'
# www.blender.org
mtllib Triangle1.mtl
o TriangleBig1_Plane
v -1.000000 -0.025000 -0.334961
v 1.000000 -0.025000 -0.334961
v 0.000000 -0.025000 0.665039
v 1.000000 0.025000 -0.334961
v -1.000000 0.025000 -0.334961
v 0.000000 0.025000 0.665039
vt 1.000000 1.000000
vt 0.500000 0.500000
vt 0.000000 1.000000
vt 1.000000 1.000000
vt 0.500000 0.500000
vt 0.000000 1.000000
vn 0.0000 -1.0000 0.0000
vn 0.7071 0.0000 0.7071
vn -0.7071 0.0000 0.7071
vn 0.0000 1.0000 0.0000
vn 0.0000 0.0000 -1.0000
usemtl TriangleBig1
s off
f 2/1/1 3/2/1 1/3/1
f 3/2/2 2/1/2 4/4/2 6/5/2
f 1/3/3 3/2/3 6/5/3 5/6/3
f 4/4/4 5/6/4 6/5/4
f 2/1/5 1/3/5 5/6/5 4/4/5
