# Blender v2.80 (sub 75) OBJ File: 'Scene.blend'
# www.blender.org
mtllib Tr-SupportLever.mtl
o Tr-SupportLever_Support.001_Cube.006
v -1.388708 0.996162 -0.500336
v -1.388708 -0.003838 -0.500336
v -1.688708 -0.003838 -0.500409
v -1.688708 0.996162 -0.500409
v -1.688781 0.996162 -0.200409
v -1.688781 -0.003838 -0.200409
v -1.688950 -0.003838 0.499591
v -1.688950 0.996162 0.499591
v -0.688781 0.996162 -0.200167
v -0.688781 -0.003838 -0.200167
v -0.688708 -0.003838 -0.500167
v -0.688708 0.996162 -0.500167
v -1.388781 -0.003838 -0.200336
v -1.388781 0.996162 -0.200336
v -1.388950 0.996162 0.499664
v -1.388950 -0.003838 0.499664
vt 0.375000 0.125000
vt 0.625000 0.125000
vt 0.625000 0.250000
vt 0.375000 0.250000
vt 0.375000 0.375000
vt 0.625000 0.375000
vt 0.625000 0.500000
vt 0.375000 0.500000
vt 0.375000 0.875000
vt 0.625000 0.875000
vt 0.625000 1.000000
vt 0.375000 1.000000
vt 0.750000 0.625000
vt 0.875000 0.625000
vt 0.875000 0.750000
vt 0.750000 0.750000
vt 0.250000 0.625000
vt 0.375000 0.625000
vt 0.625000 0.625000
vt 0.125000 0.625000
vt 0.250000 0.750000
vt 0.125000 0.750000
vt 0.125000 0.500000
vt 0.250000 0.500000
vt 0.750000 0.500000
vt 0.875000 0.500000
vt 0.375000 0.000000
vt 0.625000 0.000000
vn 0.0002 0.0000 -1.0000
vn -1.0000 -0.0000 -0.0002
vn 1.0000 0.0000 0.0002
vn 0.0000 -1.0000 0.0000
vn -0.0000 1.0000 -0.0000
vn -0.0002 -0.0000 1.0000
usemtl None.008
s off
f 1/1/1 2/2/1 3/3/1 4/4/1
f 5/5/2 6/6/2 7/7/2 8/8/2
f 9/9/3 10/10/3 11/11/3 12/12/3
f 13/13/4 2/14/4 11/15/4 10/16/4
f 14/17/3 15/18/3 16/19/3 13/13/3
f 1/20/5 14/17/5 9/21/5 12/22/5
f 10/10/6 9/9/6 14/17/6 13/13/6
f 4/4/2 3/3/2 6/6/2 5/5/2
f 4/23/5 5/24/5 14/17/5 1/20/5
f 7/7/4 6/25/4 13/13/4 16/19/4
f 6/25/4 3/26/4 2/14/4 13/13/4
f 5/24/5 8/8/5 15/18/5 14/17/5
f 8/8/6 7/7/6 16/19/6 15/18/6
f 12/27/1 11/28/1 2/2/1 1/1/1
