# Blender v2.80 (sub 75) OBJ File: 'Scene.blend'
# www.blender.org
mtllib Tr-SliderX.mtl
o Tr-SliderX_Slider_Cube.000
v 0.795980 1.032682 -0.364255
v 0.795980 0.991388 -0.364255
v 0.786212 0.991388 -0.364258
v 0.786212 1.032682 -0.364258
v 0.786210 1.032682 -0.356161
v 0.786210 0.991388 -0.356161
v 1.320974 0.991388 -0.356031
v 1.320976 0.991388 -0.364128
v 1.330743 0.991388 -0.364126
v 1.330741 0.991388 -0.356029
v 0.795970 0.991388 -0.321327
v 0.795970 1.032682 -0.321327
v 0.786202 1.032682 -0.321330
v 0.786202 0.991388 -0.321330
v 0.795978 1.032682 -0.356158
v 1.330743 1.032682 -0.364126
v 1.330741 1.032682 -0.356029
v 1.320976 1.032682 -0.364128
v 1.320974 1.032682 -0.356031
v 1.330733 0.991388 -0.321198
v 1.330733 1.032682 -0.321198
v 1.320966 1.032682 -0.321200
v 1.320966 0.991388 -0.321200
v 0.795978 0.991388 -0.356158
v 0.795972 0.991388 -0.329424
v 1.320968 0.991388 -0.329297
v 0.786204 0.991388 -0.329427
v 1.320968 1.032682 -0.329297
v 0.795972 1.032682 -0.329424
v 0.795978 1.012079 -0.356158
v 1.320974 1.012079 -0.356031
v 1.330734 1.032682 -0.329295
v 1.330734 0.991388 -0.329295
v 0.786204 1.032682 -0.329427
v 0.795972 1.012079 -0.329424
v 1.320968 1.012079 -0.329297
v 1.320968 1.012902 -0.329297
v 0.795972 1.012902 -0.329424
v 1.320974 1.012902 -0.356031
v 0.795978 1.012902 -0.356158
vt 0.375000 0.166667
vt 0.625000 0.166667
vt 0.625000 0.250000
vt 0.375000 0.250000
vt 0.541667 0.250000
vt 0.625000 0.250000
vt 0.625000 0.500000
vt 0.541667 0.500000
vt 0.541667 0.666667
vt 0.625000 0.666667
vt 0.625000 0.750000
vt 0.541667 0.750000
vt 0.375000 0.916667
vt 0.625000 0.916667
vt 0.625000 1.000000
vt 0.375000 1.000000
vt 0.291667 0.666667
vt 0.375000 0.666667
vt 0.375000 0.750000
vt 0.291667 0.750000
vt 0.791667 0.500000
vt 0.875000 0.500000
vt 0.875000 0.750000
vt 0.791667 0.750000
vt 0.291667 0.500000
vt 0.375000 0.500000
vt 0.375000 0.583333
vt 0.291667 0.583333
vt 0.375000 0.750000
vt 0.625000 0.750000
vt 0.625000 0.833333
vt 0.375000 0.833333
vt 0.625000 0.583333
vt 0.541667 0.583333
vt 0.375000 0.000000
vt 0.625000 0.000000
vt 0.625000 0.083333
vt 0.375000 0.083333
vt 0.375000 0.583333
vt 0.458333 0.583333
vt 0.458333 0.666667
vt 0.375000 0.666667
vt 0.375000 0.500000
vt 0.458333 0.500000
vt 0.125000 0.583333
vt 0.208333 0.583333
vt 0.208333 0.666667
vt 0.125000 0.666667
vt 0.291667 0.666667
vt 0.291667 0.583333
vt 0.125000 0.500000
vt 0.208333 0.500000
vt 0.625000 0.500000
vt 0.708333 0.500000
vt 0.708333 0.750000
vt 0.208333 0.750000
vt 0.125000 0.750000
vt 0.458333 0.750000
vt 0.375000 0.250000
vt 0.458333 0.250000
vt 0.208333 0.666667
vt 0.208333 0.583333
vt 0.208333 0.583333
vt 0.208333 0.666667
vt 0.291667 0.583333
vt 0.291667 0.666667
vn 0.0002 0.0000 -1.0000
vn -1.0000 -0.0000 -0.0002
vn 0.0000 -1.0000 0.0000
vn -0.0002 0.0000 1.0000
vn 0.0000 1.0000 -0.0000
vn 1.0000 0.0000 0.0002
usemtl Material.006
s off
f 1/1/1 2/2/1 3/3/1 4/4/1
f 5/5/2 4/6/2 3/7/2 6/8/2
f 7/9/3 8/10/3 9/11/3 10/12/3
f 11/13/4 12/14/4 13/15/4 14/16/4
f 15/17/5 1/18/5 4/19/5 5/20/5
f 10/21/6 9/22/6 16/23/6 17/24/6
f 17/25/5 16/26/5 18/27/5 19/28/5
f 19/28/5 18/27/5 1/18/5 15/17/5
f 20/29/4 21/30/4 22/31/4 23/32/4
f 23/32/4 22/31/4 12/14/4 11/13/4
f 6/8/3 3/7/3 2/33/3 24/34/3
f 24/34/3 2/33/3 8/10/3 7/9/3
f 16/35/1 9/36/1 8/37/1 18/38/1
f 18/38/1 8/37/1 2/2/1 1/1/1
f 11/39/3 25/40/3 26/41/3 23/42/3
f 25/40/3 24/34/3 7/9/3 26/41/3
f 14/43/3 27/44/3 25/40/3 11/39/3
f 27/44/3 6/8/3 24/34/3 25/40/3
f 22/45/5 28/46/5 29/47/5 12/48/5
f 19/28/4 15/17/4 30/49/4 31/50/4
f 21/51/5 32/52/5 28/46/5 22/45/5
f 32/52/5 17/25/5 19/28/5 28/46/5
f 20/53/6 33/54/6 32/55/6 21/30/6
f 33/54/6 10/21/6 17/24/6 32/55/6
f 12/48/5 29/47/5 34/56/5 13/57/5
f 29/47/5 15/17/5 5/20/5 34/56/5
f 23/42/3 26/41/3 33/58/3 20/29/3
f 26/41/3 7/9/3 10/12/3 33/58/3
f 13/59/2 34/60/2 27/44/2 14/43/2
f 34/60/2 5/5/2 6/8/2 27/44/2
f 35/61/4 36/62/4 37/63/4 38/64/4
f 15/17/6 29/47/6 35/61/6 30/49/6
f 28/46/2 19/28/2 31/50/2 36/62/2
f 29/47/1 28/46/1 36/62/1 35/61/1
f 37/63/5 39/65/5 40/66/5 38/64/5
f 36/62/6 31/50/6 39/65/6 37/63/6
f 31/50/1 30/49/1 40/66/1 39/65/1
f 30/49/2 35/61/2 38/64/2 40/66/2
