# Blender v2.79 (sub 0) OBJ File: 'teleportPoint.blend'
# www.blender.org
mtllib teleportPointUp.mtl
o Plane
v -0.112913 -0.340737 0.045645
v -0.112913 0.360430 0.045645
v 0.112913 0.360430 0.045645
v 0.112913 -0.340737 0.045645
v 0.228871 -0.349459 0.045645
v -0.228871 -0.349459 0.045645
v 0.000000 -0.637267 0.045645
v -0.112913 -0.340737 -0.068053
v 0.112913 -0.340737 -0.068053
v 0.112913 0.360430 -0.068053
v -0.112913 0.360430 -0.068053
v -0.228871 -0.349459 -0.068053
v 0.228871 -0.349459 -0.068053
v 0.000000 -0.637267 -0.068053
vt 0.000000 0.000000
vt 1.000000 0.000000
vt 1.000000 1.000000
vt 0.000000 1.000000
vt 0.000000 0.000000
vt 1.000000 0.000000
vt 1.000000 0.000000
vt 0.000000 0.000000
vt 0.000000 1.000000
vt 1.000000 1.000000
vt 1.000000 0.000000
vt 1.000000 0.000000
vt 0.000000 0.000000
vt 1.000000 0.000000
vn 0.0000 -0.0000 1.0000
vn 0.0000 0.0000 -1.0000
vn 0.7827 -0.6224 0.0000
vn -0.0750 0.9972 0.0000
vn 1.0000 -0.0000 0.0000
vn -1.0000 -0.0000 0.0000
vn -0.7827 -0.6224 0.0000
vn 0.0750 0.9972 0.0000
vn 0.0000 1.0000 0.0000
usemtl None
s 1
f 1/1/1 4/2/1 3/3/1 2/4/1
f 4/2/1 1/1/1 6/5/1 5/6/1
f 5/6/1 6/5/1 7/7/1
f 8/8/2 11/9/2 10/10/2 9/11/2
f 9/11/2 13/12/2 12/13/2 8/8/2
f 13/12/2 14/14/2 12/13/2
f 7/7/3 14/14/3 13/12/3 5/6/3
f 1/1/4 8/8/4 12/13/4 6/5/4
f 4/2/5 9/11/5 10/10/5 3/3/5
f 2/4/6 11/9/6 8/8/6 1/1/6
f 6/5/7 12/13/7 14/14/7 7/7/7
f 5/6/8 13/12/8 9/11/8 4/2/8
f 3/3/9 10/10/9 11/9/9 2/4/9
