# Blender v2.80 (sub 75) OBJ File: 'Scene.blend'
# www.blender.org
mtllib Tr-Ecran.mtl
o Tr-Ecran_Cube.008
v -0.600000 0.492683 0.600000
v -0.600000 0.600000 0.600000
v -0.600000 0.492683 -0.600000
v -0.600000 0.600000 -0.600000
v 0.600000 0.492683 0.600000
v 0.600000 0.600000 0.600000
v 0.600000 0.492683 -0.600000
v 0.600000 0.600000 -0.600000
v 0.538973 0.492683 -0.600000
v -0.538973 0.492683 -0.600000
v -0.538973 0.600000 -0.600000
v 0.538973 0.600000 -0.600000
v -0.538973 0.492683 0.600000
v 0.538973 0.492683 0.600000
v 0.538973 0.600000 0.600000
v -0.538973 0.600000 0.600000
v -0.600000 0.492683 -0.534534
v -0.600000 0.492683 0.534534
v -0.600000 0.600000 0.534534
v -0.600000 0.600000 -0.534534
v 0.600000 0.492683 0.534534
v 0.600000 0.492683 -0.534534
v 0.600000 0.600000 -0.534534
v 0.600000 0.600000 0.534534
v 0.538973 0.600000 -0.534534
v 0.538973 0.600000 0.534534
v -0.538973 0.600000 -0.534534
v -0.538973 0.600000 0.534534
v -0.538973 0.492683 -0.534534
v -0.538973 0.492683 0.534534
v 0.538973 0.492683 -0.534534
v 0.538973 0.492683 0.534534
v 0.538973 0.524084 -0.534534
v 0.538973 0.524084 0.534534
v -0.538973 0.524084 -0.534534
v -0.538973 0.524084 0.534534
v -0.600000 -0.130849 0.534534
v -0.600000 -0.130849 0.600000
v -0.538973 -0.130849 -0.600000
v -0.600000 -0.130849 -0.600000
v 0.600000 -0.130849 -0.534534
v 0.600000 -0.130849 -0.600000
v 0.538973 -0.130849 0.600000
v 0.600000 -0.130849 0.600000
v 0.538973 -0.130849 -0.600000
v -0.538973 -0.130849 0.600000
v -0.538973 -0.130849 0.534534
v 0.538973 -0.130849 0.534534
v -0.600000 -0.130849 -0.534534
v 0.600000 -0.130849 0.534534
v -0.538973 -0.130849 -0.534534
v 0.538973 -0.130849 -0.534534
vt 0.375000 0.166667
vt 0.625000 0.166667
vt 0.625000 0.250000
vt 0.375000 0.250000
vt 0.375000 0.416667
vt 0.625000 0.416667
vt 0.625000 0.500000
vt 0.375000 0.500000
vt 0.375000 0.666667
vt 0.625000 0.666667
vt 0.625000 0.750000
vt 0.375000 0.750000
vt 0.375000 0.916667
vt 0.625000 0.916667
vt 0.625000 1.000000
vt 0.375000 1.000000
vt 0.291667 0.750000
vt 0.291667 0.666667
vt 0.291667 0.666667
vt 0.291667 0.750000
vt 0.791667 0.666667
vt 0.875000 0.666667
vt 0.875000 0.750000
vt 0.791667 0.750000
vt 0.708333 0.666667
vt 0.708333 0.750000
vt 0.375000 0.000000
vt 0.375000 0.083333
vt 0.375000 0.083333
vt 0.375000 0.000000
vt 0.208333 0.666667
vt 0.208333 0.750000
vt 0.625000 0.833333
vt 0.375000 0.833333
vt 0.625000 0.333333
vt 0.375000 0.333333
vt 0.208333 0.500000
vt 0.291667 0.500000
vt 0.291667 0.583333
vt 0.208333 0.583333
vt 0.208333 0.750000
vt 0.208333 0.666667
vt 0.125000 0.583333
vt 0.125000 0.666667
vt 0.708333 0.500000
vt 0.791667 0.500000
vt 0.791667 0.583333
vt 0.708333 0.583333
vt 0.708333 0.666667
vt 0.791667 0.666667
vt 0.625000 0.583333
vt 0.875000 0.500000
vt 0.875000 0.583333
vt 0.375000 0.583333
vt 0.375000 0.583333
vt 0.375000 0.500000
vt 0.625000 0.000000
vt 0.625000 0.083333
vt 0.708333 0.583333
vt 0.791667 0.583333
vt 0.375000 0.666667
vt 0.375000 0.750000
vt 0.125000 0.666667
vt 0.125000 0.750000
vt 0.125000 0.500000
vt 0.208333 0.500000
vt 0.208333 0.583333
vt 0.125000 0.583333
vt 0.291667 0.500000
vt 0.291667 0.583333
vt 0.375000 1.000000
vt 0.375000 0.916667
vt 0.375000 0.833333
vt 0.375000 0.333333
vt 0.375000 0.250000
vt 0.375000 0.416667
vt 0.375000 0.166667
vn -1.0000 0.0000 0.0000
vn 0.0000 0.0000 -1.0000
vn 1.0000 0.0000 0.0000
vn 0.0000 0.0000 1.0000
vn 0.0000 1.0000 0.0000
vn 0.0000 -1.0000 0.0000
usemtl None
s off
f 17/1/1 20/2/1 4/3/1 3/4/1
f 9/5/2 12/6/2 8/7/2 7/8/2
f 21/9/3 24/10/3 6/11/3 5/12/3
f 13/13/4 16/14/4 2/15/4 1/16/4
f 14/17/1 32/18/1 48/19/1 43/20/1
f 28/21/5 19/22/5 2/23/5 16/24/5
f 24/10/5 26/25/5 15/26/5 6/11/5
f 26/25/5 28/21/5 16/24/5 15/26/5
f 1/27/1 18/28/1 37/29/1 38/30/1
f 30/31/6 32/18/6 14/17/6 13/32/6
f 5/12/4 6/11/4 15/33/4 14/34/4
f 14/34/4 15/33/4 16/14/4 13/13/4
f 3/4/2 4/3/2 11/35/2 10/36/2
f 10/36/2 11/35/2 12/6/2 9/5/2
f 10/37/6 9/38/6 31/39/6 29/40/6
f 29/40/6 31/39/6 32/18/6 30/31/6
f 30/31/3 13/32/3 46/41/3 47/42/3
f 17/43/6 29/40/6 30/31/6 18/44/6
f 12/45/5 11/46/5 27/47/5 25/48/5
f 28/21/2 26/25/2 34/49/2 36/50/2
f 8/7/5 12/45/5 25/48/5 23/51/5
f 23/51/5 25/48/5 26/25/5 24/10/5
f 11/46/5 4/52/5 20/53/5 27/47/5
f 27/47/5 20/53/5 19/22/5 28/21/5
f 7/8/3 22/54/3 41/55/3 42/56/3
f 31/39/6 22/54/6 21/9/6 32/18/6
f 7/8/3 8/7/3 23/51/3 22/54/3
f 22/54/3 23/51/3 24/10/3 21/9/3
f 1/27/1 2/57/1 19/58/1 18/28/1
f 18/28/1 19/58/1 20/2/1 17/1/1
f 33/59/5 35/60/5 36/50/5 34/49/5
f 27/47/3 28/21/3 36/50/3 35/60/3
f 26/25/1 25/48/1 33/59/1 34/49/1
f 25/48/4 27/47/4 35/60/4 33/59/4
f 48/19/6 50/61/6 44/62/6 43/20/6
f 37/63/6 47/42/6 46/41/6 38/64/6
f 40/65/6 39/66/6 51/67/6 49/68/6
f 45/69/6 42/56/6 41/55/6 52/70/6
f 13/13/4 1/16/4 38/71/4 46/72/4
f 29/40/4 17/43/4 49/68/4 51/67/4
f 22/54/4 31/39/4 52/70/4 41/55/4
f 21/9/3 5/12/3 44/62/3 50/61/3
f 18/44/2 30/31/2 47/42/2 37/63/2
f 5/12/4 14/34/4 43/73/4 44/62/4
f 10/37/3 29/40/3 51/67/3 39/66/3
f 32/18/2 21/9/2 50/61/2 48/19/2
f 3/4/2 10/36/2 39/74/2 40/75/2
f 9/5/2 7/8/2 42/56/2 45/76/2
f 31/39/1 9/38/1 45/69/1 52/70/1
f 17/1/1 3/4/1 40/75/1 49/77/1
